<svg xmlns="http://www.w3.org/2000/svg"
 xmlns:xlink="http://www.w3.org/1999/xlink"
 width="10px" height="7px"  viewBox="0 0 10 7">
<path fill-rule="evenodd"  fill="#7e7e7e"
 d="M1.9998779,2.7577534 C1.9998779,2.9349318 2.0736084,3.1121101 2.2209473,3.2477245 C2.2209473,3.2477245 4.9353027,5.7321663 4.9353027,5.7321663 C5.227173,5.9994507 5.6984863,5.9994507 5.9904785,5.7321663 C5.9904785,5.7321663 8.704712,3.2477245 8.704712,3.2477245 C8.998169,2.9789238 8.999878,2.5411348 8.708374,2.2708168 C8.416992,2.0011053 7.942871,1.9989815 7.649536,2.2677822 C7.649536,2.2677822 5.4628906,4.269231 5.4628906,4.269231 C5.4628906,4.269231 3.276245,2.2677822 3.276245,2.2677822 C2.982788,1.9989815 2.508667,2.0011053 2.2172852,2.2708168 C2.0722656,2.406128 1.9998779,2.581789 1.9998779,2.7577534 Z"/>
</svg>