<svg xmlns="http://www.w3.org/2000/svg"
 xmlns:xlink="http://www.w3.org/1999/xlink"
 width="9px" height="7px"  viewBox="0 0 9 7">
<path fill-rule="evenodd"  fill="#7e7e7e"
 d="M1.0,5.240982 C1.0,5.0638027 1.0736084,4.8866253 1.2209473,4.751011 C1.2209473,4.751011 3.9353027,2.2668724 3.9353027,2.2668724 C4.227295,1.999588 4.6984863,1.999588 4.9904785,2.2668724 C4.9904785,2.2668724 7.704712,4.751011 7.704712,4.751011 C7.998169,5.0198116 7.999878,5.4576006 7.708374,5.7279186 C7.416992,5.99763 6.942871,5.999754 6.649536,5.7309523 C6.649536,5.7309523 4.4628906,3.7298079 4.4628906,3.7298079 C4.4628906,3.7298079 2.276245,5.7309523 2.276245,5.7309523 C1.9827881,5.999754 1.508667,5.99763 1.2172852,5.7279186 C1.0722656,5.5926075 1.0,5.4169464 1.0,5.240982 Z"/>
</svg>