<svg xmlns="http://www.w3.org/2000/svg"
 xmlns:xlink="http://www.w3.org/1999/xlink"
 width="26px" height="42px"  viewBox="0 0 26 42">
<path fill-rule="evenodd"  fill="#1f1f1f"
 d="M13.499725,1.9985352 C7.1482544,1.9985352 1.9997864,7.041992 1.9997864,13.262695 C1.9997864,13.415527 2.0044937,13.574707 2.0122375,13.736328 C2.016037,13.830078 2.021988,13.92334 2.0283356,14.01709 C2.0324173,14.076172 2.0371857,14.136719 2.04245,14.197754 C2.0506287,14.296875 2.0587387,14.396484 2.0695953,14.494629 C3.0234756,23.594238 13.499817,40.999023 13.499817,40.999023 C13.499817,40.999023 23.975876,23.594238 24.929718,14.494629 C24.940872,14.396484 24.948761,14.296875 24.957,14.197754 C24.962128,14.136719 24.967163,14.076172 24.971283,14.01709 C24.977783,13.922852 24.983505,13.830078 24.987534,13.736328 C24.995087,13.574707 24.999786,13.415527 24.999786,13.262695 C24.999329,7.041992 19.85086,1.9985352 13.499725,1.9985352 ZM18.477112,14.186523 C18.477112,16.878418 16.248596,19.061035 13.499725,19.061035 C10.750885,19.061035 8.522461,16.878418 8.522461,14.186523 C8.522461,11.493652 10.750885,9.311523 13.499725,9.311523 C16.248596,9.311523 18.477112,11.493652 18.477112,14.186523 Z"/>
</svg>