<svg 
 xmlns="http://www.w3.org/2000/svg"
 xmlns:xlink="http://www.w3.org/1999/xlink"
 width="14px" height="9px">
<path fill-rule="evenodd"  fill="rgb(102, 102, 102)"
 d="M10.842,8.040 L8.015,5.135 L10.000,5.135 L10.000,2.167 L7.000,2.167 L7.000,2.139 L4.920,0.209 L7.213,0.132 C7.213,0.132 7.225,0.158 7.229,0.165 L10.000,0.165 L10.000,0.444 L12.000,0.444 L12.000,5.135 L13.937,5.135 L10.842,8.040 ZM4.000,3.204 L4.000,6.235 L6.906,6.235 L6.906,6.232 L6.908,6.235 L6.969,6.235 L6.969,6.247 C6.975,6.247 6.977,6.244 6.983,6.244 L6.983,6.322 L8.594,8.203 L6.969,8.203 L3.969,8.203 L3.969,8.195 L2.000,8.195 L2.000,3.167 L2.860,3.167 L0.030,3.077 L2.972,0.132 L5.990,3.268 L4.000,3.204 Z"/>
</svg>